<?xml version="1.0" standalone="no"?>
<!DOCTYPE svg PUBLIC "-//W3C//DTD SVG 20010904//EN"
 "http://www.w3.org/TR/2001/REC-SVG-20010904/DTD/svg10.dtd">
<svg version="1.0" xmlns="http://www.w3.org/2000/svg"
 width="225.000000pt" height="224.000000pt" viewBox="0 0 225.000000 224.000000"
 preserveAspectRatio="xMidYMid meet">

<g transform="translate(0.000000,224.000000) scale(0.100000,-0.100000)"
fill="#000000" stroke="none">
<path d="M975 2190 c-92 -15 -227 -56 -308 -94 -213 -102 -401 -286 -507 -496
-125 -247 -146 -563 -56 -826 118 -348 404 -609 771 -705 78 -20 113 -23 255
-23 146 1 177 4 265 27 373 100 663 382 769 750 108 371 4 778 -269 1053 -150
152 -339 255 -550 300 -86 19 -289 26 -370 14z m275 -44 c237 -16 518 -171
683 -376 81 -101 166 -267 199 -390 20 -74 23 -108 22 -265 0 -209 -14 -274
-88 -430 -123 -259 -319 -442 -577 -536 -137 -50 -209 -62 -369 -62 -124 0
-160 4 -245 27 -372 97 -649 371 -752 743 -25 88 -27 115 -28 258 0 133 4 175
23 249 77 304 277 550 557 686 146 71 332 113 460 104 22 -2 74 -6 115 -8z"/>
<path d="M930 2106 c-391 -82 -696 -382 -786 -771 -29 -124 -25 -340 9 -466
146 -550 710 -871 1255 -713 172 50 316 138 442 270 124 130 205 274 252 444
20 73 23 108 23 250 -1 140 -4 178 -24 250 -93 349 -372 629 -718 722 -100 26
-354 34 -453 14z m220 -111 c0 -73 -1 -75 -25 -75 -24 0 -25 2 -25 75 0 73 1
75 25 75 24 0 25 -2 25 -75z m240 36 c32 -23 40 -62 11 -54 -11 3 -27 14 -37
24 -19 22 -54 25 -72 7 -20 -20 -15 -66 8 -78 21 -11 60 -5 60 9 0 5 11 6 25
3 29 -5 30 -9 8 -34 -37 -41 -155 -8 -169 47 -8 33 11 80 39 94 29 14 96 5
127 -18z m-389 -43 c56 -80 56 -78 21 -78 -25 0 -35 8 -59 45 -31 49 -41 43
-42 -27 -1 -31 -5 -38 -31 -47 -16 -5 -30 -8 -30 -6 0 31 33 161 42 167 32 20
55 7 99 -54z m-222 -31 c65 -53 0 -157 -98 -157 -68 0 -95 83 -42 134 45 43
102 53 140 23z m817 -3 c39 -18 64 -49 64 -77 0 -28 -32 -17 -48 16 -17 35
-56 45 -82 22 -25 -23 -25 -47 -1 -69 14 -12 29 -16 48 -12 38 8 61 -7 44 -28
-18 -22 -54 -20 -101 4 -65 33 -80 91 -35 135 28 29 63 32 111 9z m-307 -109
c35 -9 69 -19 76 -23 10 -5 -1 -53 -50 -207 l-63 -200 -125 -3 -125 -3 -37
118 c-74 239 -89 283 -96 275 -4 -4 -81 -209 -172 -457 -91 -247 -168 -457
-171 -466 -5 -12 19 -27 111 -70 100 -45 128 -63 184 -119 57 -57 69 -76 96
-150 17 -47 41 -127 53 -178 l23 -92 133 0 133 0 11 43 c60 237 97 323 164
385 25 23 100 69 168 103 68 34 124 62 126 64 1 1 -74 213 -168 470 -94 257
-168 470 -166 472 8 9 99 -37 160 -81 278 -198 388 -565 263 -876 -41 -100
-88 -170 -167 -250 -79 -79 -150 -126 -247 -165 l-58 -23 -24 -96 -23 -96
-172 0 -173 0 -17 83 c-20 93 -31 117 -51 117 -25 0 -161 76 -222 123 -370
291 -367 874 6 1161 77 59 208 122 291 140 87 19 250 19 329 1z m-714 -55 c41
-42 46 -51 35 -65 -19 -22 -30 -19 -72 22 l-38 37 -22 -22 -22 -22 37 -38 c40
-41 44 -54 24 -70 -10 -9 -26 1 -67 43 l-54 55 54 55 c30 30 59 55 65 55 6 0
33 -22 60 -50z m1234 -12 l51 -53 -52 -52 c-29 -29 -55 -53 -58 -53 -3 0 -11
10 -18 21 -12 19 -10 25 24 60 37 38 37 39 19 59 -10 11 -22 20 -27 20 -13 0
-9 -22 7 -40 14 -16 12 -18 -34 -27 -46 -9 -52 -8 -71 12 l-21 22 31 6 c23 5
30 12 30 30 0 13 5 28 12 35 24 24 55 12 107 -40z m-330 -542 c50 -159 91
-292 91 -295 0 -4 -25 -19 -56 -34 -70 -35 -162 -121 -196 -185 -15 -26 -38
-87 -53 -135 -15 -48 -29 -86 -30 -85 -1 2 8 75 22 163 30 198 49 242 145 341
39 41 69 74 66 74 -3 0 -39 -15 -79 -34 -41 -19 -75 -33 -77 -31 -2 2 13 114
32 250 20 137 36 253 36 258 0 25 14 -15 99 -287z m-573 42 c18 -128 34 -241
34 -251 0 -14 -13 -11 -82 24 l-83 41 30 -33 c16 -19 49 -54 72 -79 67 -72 89
-127 113 -288 12 -79 20 -145 18 -148 -3 -2 -12 23 -22 57 -38 136 -125 246
-242 304 -32 17 -58 35 -57 40 3 26 178 574 181 570 2 -2 19 -108 38 -237z
m-686 -153 c0 -19 5 -35 10 -35 6 0 10 -4 10 -10 0 -5 -16 -10 -35 -10 -19 0
-35 5 -35 10 0 6 7 10 15 10 9 0 15 9 15 25 0 16 -6 25 -15 25 -8 0 -15 5 -15
10 0 6 11 10 25 10 22 0 25 -4 25 -35z m118 0 c3 -19 -2 -33 -14 -42 -21 -15
-64 -17 -64 -3 0 6 11 10 24 10 14 0 28 5 31 10 4 6 -6 10 -24 10 -33 0 -46
13 -37 36 4 11 17 14 43 12 34 -3 38 -6 41 -33z m1637 28 c-44 -10 -50 -16
-20 -22 44 -9 47 -47 5 -56 -19 -4 -36 -3 -43 4 -8 8 -2 11 22 11 22 0 31 4
28 13 -2 6 -16 11 -31 9 -26 -3 -31 4 -20 32 4 11 18 16 43 15 20 -1 27 -3 16
-6z m113 -30 c3 -27 -1 -35 -22 -44 -14 -7 -32 -8 -43 -4 -16 7 -15 9 7 13 37
6 49 22 18 22 -30 0 -43 14 -34 36 4 10 16 14 38 12 29 -3 33 -7 36 -35z"/>
<path d="M679 1922 c-17 -15 -21 -25 -15 -46 8 -31 26 -41 60 -32 43 11 41 62
-3 86 -15 7 -25 5 -42 -8z"/>
<path d="M275 1140 c-8 -12 20 -24 35 -15 6 3 8 11 5 16 -8 12 -32 12 -40 -1z"/>
<path d="M2033 1138 c2 -7 10 -13 17 -13 7 0 15 6 18 13 2 7 -5 12 -18 12 -13
0 -20 -5 -17 -12z"/>
</g>
</svg>
